<?xml version="1.0" encoding="UTF-8" standalone="no"?>
<svg
   xmlns:dc="http://purl.org/dc/elements/1.1/"
   xmlns:cc="http://creativecommons.org/ns#"
   xmlns:rdf="http://www.w3.org/1999/02/22-rdf-syntax-ns#"
   xmlns:svg="http://www.w3.org/2000/svg"
   xmlns="http://www.w3.org/2000/svg"
   xmlns:sodipodi="http://sodipodi.sourceforge.net/DTD/sodipodi-0.dtd"
   xmlns:inkscape="http://www.inkscape.org/namespaces/inkscape"
   version="1.1"
   x="0px"
   y="0px"
   width="100px"
   height="100px"
   viewBox="0 0 100 100"
   enable-background="new 0 0 100 100"
   xml:space="preserve"
   id="svg2"
   inkscape:version="0.48.2 r9819"
   sodipodi:docname="new task.xaml"
   inkscape:export-filename="C:\Users\erikv_000\Pictures\new task.png"
   inkscape:export-xdpi="43.200001"
   inkscape:export-ydpi="43.200001"><metadata
   id="metadata124"><rdf:RDF><cc:Work
       rdf:about=""><dc:format>image/svg+xml</dc:format><dc:type
         rdf:resource="http://purl.org/dc/dcmitype/StillImage" /><dc:title></dc:title></cc:Work></rdf:RDF></metadata><defs
   id="defs122">
	
	
	
	
	
	
	
	
	
	
	
	
	
	
	
	
	
	
	
	
	
	
	
	
	
	
	
</defs><sodipodi:namedview
   pagecolor="#ffffff"
   bordercolor="#666666"
   borderopacity="1"
   objecttolerance="10"
   gridtolerance="10"
   guidetolerance="10"
   inkscape:pageopacity="0"
   inkscape:pageshadow="2"
   inkscape:window-width="975"
   inkscape:window-height="713"
   id="namedview120"
   showgrid="false"
   inkscape:zoom="2.36"
   inkscape:cx="54.449153"
   inkscape:cy="32.627119"
   inkscape:window-x="0"
   inkscape:window-y="0"
   inkscape:window-maximized="0"
   inkscape:current-layer="svg2" />
<rect
   style="fill:none"
   id="rect77"
   height="32.5"
   width="35"
   y="58"
   x="-50" />
<g
   id="Your_Icon">
	<polygon
   points="55,41.871 55,37 42,37 42,42 45,42 45,60 42,60 42,65 58,65 58,60 55,60  "
   id="polygon114" />
	<circle
   cx="50"
   cy="28.871"
   r="5"
   id="circle116" />
	<path
   d="M93.621,44.371C93.621,20.318,74.053,0.75,50,0.75S6.379,20.318,6.379,44.371c0,19.396,12.727,35.867,30.266,41.521   L50,99.25l13.355-13.355C80.895,80.238,93.621,63.768,93.621,44.371z M50,76.736c-17.846,0-32.364-14.521-32.364-32.365   c0-17.845,14.519-32.364,32.364-32.364s32.364,14.519,32.364,32.364C82.364,62.216,67.846,76.736,50,76.736z"
   id="path118" />
</g>
<path
   style="fill:#ffffff;fill-opacity:1;stroke:#000000;stroke-width:2.118644;stroke-miterlimit:4;stroke-opacity:1;stroke-dasharray:none"
   d="m 42.993544,92.061381 c -3.89022,-3.895928 -7.2041,-6.866542 -7.834016,-7.022534 C 34.559075,84.890148 32.563356,84.017428 30.724595,83.099462 4.0344026,69.774886 -1.5262623,34.431405 19.772795,13.490025 34.401713,-0.89322869 56.791831,-3.0469638 73.830458,8.2901466 84.789614,15.582117 92.075525,27.729675 93.074657,40.375358 c 0.683924,8.656189 -0.596182,15.488756 -4.319784,23.056845 -4.68439,9.520852 -12.392996,16.81231 -22.059958,20.866195 -3.183504,1.335017 -3.789877,1.820017 -9.962445,7.968352 -3.61494,3.600746 -6.668021,6.546809 -6.784627,6.546809 -0.11661,0 -3.246042,-3.038478 -6.954299,-6.752178 z M 59.491525,75.515797 C 74.132364,70.883835 83.462258,57.351924 82.430335,42.245763 82.143847,38.05196 81.554284,35.537515 79.928102,31.573936 76.53897,23.313426 68.883559,16.336978 59.915254,13.336039 56.828665,12.303217 55.937894,12.200893 49.957627,12.192196 43.848469,12.183311 43.153114,12.265221 40,13.365158 29.237917,17.119417 21.374322,25.422131 18.520406,36.044216 17.301708,40.580127 17.309152,48.175203 18.536776,52.74861 21.68389,64.472894 30.95689,73.363559 42.9661,76.170682 c 3.856985,0.90156 12.715367,0.550513 16.525422,-0.654885 l 0,0 z"
   id="path3159"
   inkscape:connector-curvature="0" /><path
   style="fill:#ffffff;fill-opacity:1;stroke:#000000;stroke-width:2.118644;stroke-miterlimit:4;stroke-opacity:1;stroke-dasharray:none"
   d="m 47.738377,32.896022 c -1.272413,-0.690404 -2.441767,-2.604897 -2.441767,-3.997717 0,-1.24378 1.088951,-3.214134 2.210507,-3.999701 0.519287,-0.363724 1.683512,-0.661316 2.587165,-0.661316 1.303545,0 1.940664,0.297658 3.083684,1.440678 1.18106,1.18106 1.440678,1.761383 1.440678,3.220339 0,1.458956 -0.259618,2.039279 -1.440678,3.220339 -1.615863,1.615864 -3.419271,1.87359 -5.439589,0.777378 l 0,0 z"
   id="path3161"
   inkscape:connector-curvature="0" /><path
   style="fill:#ffffff;fill-opacity:1;stroke:#000000;stroke-width:2.118644;stroke-miterlimit:4;stroke-opacity:1;stroke-dasharray:none"
   d="m 42.330508,62.584746 0,-2.330509 1.483051,0 1.483051,0 0,-9.322034 0,-9.322034 -1.483051,0 -1.483051,0 0,-2.118644 0,-2.118644 6.144068,0 6.144068,0 0,11.440678 0,11.440678 1.483051,0 1.483051,0 0,2.330509 0,2.330508 -7.627119,0 -7.627119,0 0,-2.330508 z"
   id="path3163"
   inkscape:connector-curvature="0" /></svg>