<?xml version="1.0" encoding="UTF-8" standalone="no"?>
<svg
   xmlns:dc="http://purl.org/dc/elements/1.1/"
   xmlns:cc="http://creativecommons.org/ns#"
   xmlns:rdf="http://www.w3.org/1999/02/22-rdf-syntax-ns#"
   xmlns:svg="http://www.w3.org/2000/svg"
   xmlns="http://www.w3.org/2000/svg"
   xmlns:sodipodi="http://sodipodi.sourceforge.net/DTD/sodipodi-0.dtd"
   xmlns:inkscape="http://www.inkscape.org/namespaces/inkscape"
   version="1.1"
   x="0px"
   y="0px"
   width="100px"
   height="100px"
   viewBox="0 0 100 100"
   enable-background="new 0 0 100 100"
   xml:space="preserve"
   id="svg2"
   inkscape:version="0.48.2 r9819"
   sodipodi:docname="new task.svg"><metadata
   id="metadata124"><rdf:RDF><cc:Work
       rdf:about=""><dc:format>image/svg+xml</dc:format><dc:type
         rdf:resource="http://purl.org/dc/dcmitype/StillImage" /><dc:title></dc:title></cc:Work></rdf:RDF></metadata><defs
   id="defs122">
	
	
	
	
	
	
	
	
	
	
	
	
	
	
	
	
	
	
	
	
	
	
	
	
	
	
	
</defs><sodipodi:namedview
   pagecolor="#ffffff"
   bordercolor="#666666"
   borderopacity="1"
   objecttolerance="10"
   gridtolerance="10"
   guidetolerance="10"
   inkscape:pageopacity="0"
   inkscape:pageshadow="2"
   inkscape:window-width="975"
   inkscape:window-height="713"
   id="namedview120"
   showgrid="false"
   inkscape:zoom="2.36"
   inkscape:cx="54.449153"
   inkscape:cy="32.627119"
   inkscape:window-x="0"
   inkscape:window-y="0"
   inkscape:window-maximized="0"
   inkscape:current-layer="svg2" />
<rect
   style="fill:none"
   id="rect77"
   height="32.5"
   width="35"
   y="58"
   x="-50" />
<g
   id="Your_Icon">
	<polygon
   points="55,41.871 55,37 42,37 42,42 45,42 45,60 42,60 42,65 58,65 58,60 55,60  "
   id="polygon114" />
	<circle
   cx="50"
   cy="28.871"
   r="5"
   id="circle116" />
	<path
   d="M93.621,44.371C93.621,20.318,74.053,0.75,50,0.75S6.379,20.318,6.379,44.371c0,19.396,12.727,35.867,30.266,41.521   L50,99.25l13.355-13.355C80.895,80.238,93.621,63.768,93.621,44.371z M50,76.736c-17.846,0-32.364-14.521-32.364-32.365   c0-17.845,14.519-32.364,32.364-32.364s32.364,14.519,32.364,32.364C82.364,62.216,67.846,76.736,50,76.736z"
   id="path118" />
</g>
</svg>