<?xml version="1.0" encoding="UTF-8" standalone="no"?>
<svg
   xmlns:dc="http://purl.org/dc/elements/1.1/"
   xmlns:cc="http://creativecommons.org/ns#"
   xmlns:rdf="http://www.w3.org/1999/02/22-rdf-syntax-ns#"
   xmlns:svg="http://www.w3.org/2000/svg"
   xmlns="http://www.w3.org/2000/svg"
   xmlns:sodipodi="http://sodipodi.sourceforge.net/DTD/sodipodi-0.dtd"
   xmlns:inkscape="http://www.inkscape.org/namespaces/inkscape"
   version="1.1"
   x="0px"
   y="0px"
   width="100px"
   height="100px"
   viewBox="0 0 100 100"
   enable-background="new 0 0 100 100"
   xml:space="preserve"
   id="svg2"
   inkscape:version="0.48.2 r9819"
   sodipodi:docname="TrafficLight.xaml"><metadata
   id="metadata20"><rdf:RDF><cc:Work
       rdf:about=""><dc:format>image/svg+xml</dc:format><dc:type
         rdf:resource="http://purl.org/dc/dcmitype/StillImage" /><dc:title></dc:title></cc:Work></rdf:RDF></metadata><defs
   id="defs18" /><sodipodi:namedview
   pagecolor="#ffffff"
   bordercolor="#666666"
   borderopacity="1"
   objecttolerance="10"
   gridtolerance="10"
   guidetolerance="10"
   inkscape:pageopacity="0"
   inkscape:pageshadow="2"
   inkscape:window-width="640"
   inkscape:window-height="480"
   id="namedview16"
   showgrid="false"
   inkscape:zoom="2.36"
   inkscape:cx="50"
   inkscape:cy="43.644068"
   inkscape:window-x="0"
   inkscape:window-y="0"
   inkscape:window-maximized="0"
   inkscape:current-layer="svg2" />
<path
   fill="#000000"
   d="M60,0H40c-5.523,0-10,4.477-10,10v80c0,5.521,4.477,10,10,10h20c5.521,0,10-4.479,10-10V10  C70,4.478,65.521,0,60,0z M66,90c0,3.313-2.688,6-6,6H40c-3.313,0-6-2.688-6-6V10c0-3.313,2.687-6,6-6h20c3.313,0,6,2.687,6,6V90z"
   id="path4" />
<path
   fill="#000000"
   d="M50,68c-7.732,0-13,6.268-13,14h1c0,6.627,5.373,12,12,12s12-5.373,12-12h1C63,74.268,57.732,68,50,68z   M50,92c-5.523,0-10-4.479-10-10s4.477-10,10-10c5.521,0,10,4.479,10,10S55.521,92,50,92z"
   id="path6" />
<path
   fill="#000000"
   d="M50,38c-7.732,0-13,6.268-13,14h1c0,6.626,5.373,12,12,12c6.626,0,12-5.374,12-12h1  C63,44.268,57.732,38,50,38z M50,62c-5.523,0-10-4.479-10-10c0-5.523,4.477-10,10-10c5.521,0,10,4.477,10,10  C60,57.521,55.521,62,50,62z"
   id="path8" />
<path
   fill="#000000"
   d="M50,8c-7.732,0-13,6.268-13,14h1c0,6.627,5.373,12,12,12s12-5.373,12-12h1C63,14.268,57.732,8,50,8z M50,32  c-5.523,0-10-4.477-10-10s4.477-10,10-10c5.521,0,10,4.477,10,10S55.521,32,50,32z"
   id="path10" />
<circle
   fill="#000000"
   cx="50"
   cy="52"
   r="9"
   id="middle"
   inkscape:label="#circle12" />
<circle
   fill="#000000"
   cx="50"
   cy="82"
   r="9"
   id="bottom"
   inkscape:label="#circle14" />
<circle
   transform="translate(0,-29.966101)"
   style="fill:#000000"
   sodipodi:ry="9"
   sodipodi:rx="9"
   sodipodi:cy="52"
   sodipodi:cx="50"
   cx="50"
   cy="52"
   r="9"
   id="top"
   inkscape:label="#circle12-1" /></svg>