<?xml version="1.0" encoding="UTF-8" standalone="no"?>
<!-- Generator: Adobe Illustrator 14.0.0, SVG Export Plug-In . SVG Version: 6.00 Build 43363)  -->

<svg
   xmlns:dc="http://purl.org/dc/elements/1.1/"
   xmlns:cc="http://creativecommons.org/ns#"
   xmlns:rdf="http://www.w3.org/1999/02/22-rdf-syntax-ns#"
   xmlns:svg="http://www.w3.org/2000/svg"
   xmlns="http://www.w3.org/2000/svg"
   xmlns:sodipodi="http://sodipodi.sourceforge.net/DTD/sodipodi-0.dtd"
   xmlns:inkscape="http://www.inkscape.org/namespaces/inkscape"
   version="1.0"
   id="Layer_1"
   x="0px"
   y="0px"
   width="100"
   height="100"
   viewBox="0 0 100 100"
   enable-background="new 0 0 100 58.84"
   xml:space="preserve"
   inkscape:version="0.48.4 r9939"
   sodipodi:docname="Bicycle.svg"
   inkscape:export-filename="C:\Users\Erik\Downloads\kk\Bicycle.png"
   inkscape:export-xdpi="43"
   inkscape:export-ydpi="43"><metadata
   id="metadata9"><rdf:RDF><cc:Work
       rdf:about=""><dc:format>image/svg+xml</dc:format><dc:type
         rdf:resource="http://purl.org/dc/dcmitype/StillImage" /><dc:title></dc:title></cc:Work></rdf:RDF></metadata><defs
   id="defs7" /><sodipodi:namedview
   pagecolor="#ffffff"
   bordercolor="#666666"
   borderopacity="1"
   objecttolerance="10"
   gridtolerance="10"
   guidetolerance="10"
   inkscape:pageopacity="0"
   inkscape:pageshadow="2"
   inkscape:window-width="640"
   inkscape:window-height="480"
   id="namedview5"
   showgrid="false"
   inkscape:zoom="2.74"
   inkscape:cx="50"
   inkscape:cy="50"
   inkscape:window-x="0"
   inkscape:window-y="0"
   inkscape:window-maximized="0"
   inkscape:current-layer="Layer_1" />
<path
   clip-rule="evenodd"
   d="m 82.733964,42.79819 c -2.241,0 -4.523,0.448 -6.616,1.27 -0.032,0.037 -0.032,0.037 -0.032,0.037 -2.02,-3.771 -4.036,-7.546 -6.053,-11.317 0.56,-1.384 1.121,-2.73 1.644,-4.075 2.58,0 4.673,-2.128 4.673,-4.705 0,-0.038 0,-0.038 0,-0.038 -5.493,0 -10.985,0 -16.476,0 -0.603,0 -1.157,0.562 -1.157,1.199 0,0.521 0.332,0.97 0.856,1.12 2.427,0.634 4.86,1.27 7.284,1.864 -0.674,1.568 -1.31,3.102 -1.939,4.635 -10.722,0 -21.446,0 -32.132,0 0,0 0.6,-1.98 0.711,-2.395 0.186,-0.709 0.299,-0.969 0.299,-1.718 0,-1.679 -1.044,-2.725 -2.5,-3.547 -0.038,-0.036 -0.076,-0.075 -0.076,-0.075 -0.154,-0.108 -0.264,-0.302 -0.264,-0.485 0,-0.299 0.302,-0.599 0.6,-0.599 0.41,0 0.787,0 1.156,0 1.984,0 3.961,0 5.904,0 0,-1.566 0,-3.136 0,-4.707 -2.169,0 -4.335,0 -6.461,0 -0.599,0 -1.199,0 -1.796,0 -2.575,0.04 -4.668,2.169 -4.668,4.745 0,1.906 1.158,3.622 2.916,4.37 0.035,0 0.072,0 0.072,0 0.223,0.113 0.337,0.298 0.337,0.562 0,0.035 0,0.073 0,0.111 0,0.037 0,0.037 0,0.037 -1.495,5.006 -2.986,10.011 -4.484,14.979 -0.035,-0.037 -0.072,-0.072 -0.11,-0.072 -2.576,-1.012 -3.622,-1.197 -6.39,-1.197 -9.7500005,10e-4 -17.6670005,7.919 -17.6670005,17.671 0,9.714 7.917,17.634 17.6650005,17.634 9.715,0 17.637,-7.92 17.637,-17.634 0,-5.565 -2.466,-10.574 -6.839,-13.973 -0.037,-0.075 -0.074,-0.112 -0.074,-0.15 0.222,-0.632 0.411,-1.268 0.599,-1.867 6.722,4.632 13.445,9.229 20.131,13.824 0,0.035 0,0.074 0,0.074 -0.188,0.706 -0.296,1.379 -0.296,2.092 0,3.884 3.173,7.062 7.06,7.062 1.08,0 1.305,-0.076 2.316,-0.413 0.484,0.932 0.966,1.867 1.459,2.762 -0.784,0 -1.54,0 -2.279,0 0,0.786 0,1.571 0,2.356 0.82,0 1.636,0 2.459,0 0.375,0.373 0.827,0.56 1.347,0.56 0.486,0 0.97,-0.224 1.309,-0.596 0.674,0 1.311,0 1.947,0 0,-0.791 0,-1.575 0,-2.32 -0.979,0 -1.91,0 -2.846,0 -0.598,-1.194 -1.194,-2.388 -1.757,-3.586 1.463,-0.966 2.429,-2.351 2.883,-4.071 0.038,0 0.038,0 0.038,0 0.704,0 1.376,0 2.049,0 0.897,9.039 8.479,15.88 17.559,15.88 9.709,0 17.630996,-7.92 17.630996,-17.634 0.002,-9.752 -7.919996,-17.67 -17.628996,-17.67 z m -52.392,17.67 c 0,6.798 -5.527,12.327 -12.328,12.327 -6.832,0 -12.3640005,-5.529 -12.3640005,-12.327 0,-6.839 5.5320005,-12.369 12.3640005,-12.369 1.755,0 3.439,0.375 4.972,1.049 0.034,0.039 0.075,0.039 0.075,0.039 -0.487,1.566 -0.972,3.14 -1.458,4.707 -0.673,2.017 -2.353,3.55 -4.371,4.933 -0.113,0.073 -0.184,0.146 -0.26,0.183 -0.447,0.337 -0.75,0.86 -0.75,1.459 0,0.934 0.826,1.754 1.792,1.754 0.079,0 0.26,0 0.338,-0.031 3.364,-0.939 6.76,-3.706 7.805,-6.994 0.339,-1.04 0.638,-2.087 0.938,-3.097 0.034,0.036 0.034,0.036 0.034,0.036 2.02,2.202 3.213,5.119 3.213,8.331 z m 44.529,-9.56 c 0.039,-0.039 0.039,-0.078 0.039,-0.078 1.423,2.653 2.799,5.266 4.183,7.879 -2.876,0 -5.75,0 -8.592,0 0,-0.033 0,-0.074 0,-0.074 0.447,-3.137 1.909,-5.712 4.37,-7.727 z m -44.302,-10.61 c 0.335,-1.122 0.672,-2.245 0.97,-3.365 10.606,0 21.183,0 31.75,0 -2.235,5.492 -4.478,10.982 -6.682,16.473 -0.042,0 -0.079,0 -0.079,0 -0.11,0 -0.221,0 -0.296,0 -0.713,0 -1.498,0.114 -2.17,0.342 -0.074,0.034 -0.11,0.034 -0.151,0.034 -0.48,-0.934 -0.929,-1.835 -1.379,-2.729 0.747,0 1.497,0 2.203,0 0,-0.783 0,-1.567 0,-2.356 -0.824,0 -1.639,0 -2.465,0 -0.032,-0.037 -0.032,-0.037 -0.032,-0.037 -0.342,-0.367 -0.827,-0.561 -1.309,-0.561 -0.491,0 -0.935,0.193 -1.273,0.561 -0.035,0.037 -0.035,0.037 -0.035,0.037 -0.673,0 -1.312,0 -1.943,0 0,0.789 0,1.573 0,2.356 0.971,0 1.943,0 2.878,0 0.596,1.197 1.193,2.393 1.757,3.549 -0.189,0.111 -0.337,0.221 -0.49,0.332 -7.094,-4.892 -14.194,-9.783 -21.254,-14.636 z m 25.664,24.88 c -2.581,0 -4.708,-2.137 -4.708,-4.71 0,-2.615 2.126,-4.708 4.708,-4.708 2.579,0 4.702,2.093 4.702,4.708 0,2.573 -2.123,4.71 -4.702,4.71 z m 8.925,-6.543 c 0,0 0,0 0,0.041 -0.673,0 -1.383,0 -2.087,0 -0.374,-1.388 -1.011,-2.434 -2.057,-3.441 0,0 -0.039,-0.038 -0.08,-0.069 2.319,-5.791 4.67,-11.619 7.026,-17.447 1.457,2.799 2.951,5.601 4.45,8.405 0,0 -0.043,0 -0.083,0.036 -4.14,3.027 -6.642,7.396 -7.169,12.475 z m 17.559,14.16 c -6.124,0 -11.319,-4.445 -12.216,-10.497 0,-0.038 0,-0.076 0,-0.076 4.071,0 8.146,0 12.216,0 0.937,0 1.756,-0.82 1.756,-1.754 0,-0.263 -0.04,-0.522 -0.111,-0.746 -1.945,-3.661 -3.887,-7.285 -5.794,-10.91 1.273,-0.448 2.765,-0.713 4.149,-0.713 6.798,0 12.363,5.53 12.363,12.369 0,6.798 -5.565,12.327 -12.363,12.327 z"
   id="path3"
   inkscape:connector-curvature="0"
   style="fill-rule:evenodd" />
</svg>