<?xml version="1.0" encoding="UTF-8" standalone="no"?>
<!-- Generator: Adobe Illustrator 14.0.0, SVG Export Plug-In . SVG Version: 6.00 Build 43363)  -->

<svg
   xmlns:dc="http://purl.org/dc/elements/1.1/"
   xmlns:cc="http://creativecommons.org/ns#"
   xmlns:rdf="http://www.w3.org/1999/02/22-rdf-syntax-ns#"
   xmlns:svg="http://www.w3.org/2000/svg"
   xmlns="http://www.w3.org/2000/svg"
   xmlns:sodipodi="http://sodipodi.sourceforge.net/DTD/sodipodi-0.dtd"
   xmlns:inkscape="http://www.inkscape.org/namespaces/inkscape"
   version="1.0"
   id="Layer_1"
   x="0px"
   y="0px"
   width="100"
   height="100"
   viewBox="0 0 100 99.999997"
   enable-background="new 0 0 100 83.648"
   xml:space="preserve"
   inkscape:version="0.48.4 r9939"
   sodipodi:docname="Car.svg"
   inkscape:export-filename="C:\Users\Erik\Downloads\kk\Car.png"
   inkscape:export-xdpi="43"
   inkscape:export-ydpi="43"><metadata
   id="metadata13"><rdf:RDF><cc:Work
       rdf:about=""><dc:format>image/svg+xml</dc:format><dc:type
         rdf:resource="http://purl.org/dc/dcmitype/StillImage" /><dc:title></dc:title></cc:Work></rdf:RDF></metadata><defs
   id="defs11" /><sodipodi:namedview
   pagecolor="#ffffff"
   bordercolor="#666666"
   borderopacity="1"
   objecttolerance="10"
   gridtolerance="10"
   guidetolerance="10"
   inkscape:pageopacity="0"
   inkscape:pageshadow="2"
   inkscape:window-width="640"
   inkscape:window-height="480"
   id="namedview9"
   showgrid="false"
   inkscape:zoom="2.74"
   inkscape:cx="50"
   inkscape:cy="50"
   inkscape:window-x="0"
   inkscape:window-y="0"
   inkscape:window-maximized="0"
   inkscape:current-layer="Layer_1" />
<path
   d="M 15.727,52.995138"
   id="path3"
   inkscape:connector-curvature="0" />
<path
   d="m 90.925,37.938138 -8.197,-21.167 c -1.533,-4.052 -4.883,-7.5 -11.223,-7.5290004 H 59.945 40.188 28.427 c -6.311,0.029 -9.661,3.4770004 -11.222,7.5290004 l -8.199,21.167 c -3.255,0.42 -9.016,4.245 -9.006,11.491 v 26.951 h 7.999 v 8.603 c -0.02,10.606003 14.989,10.480003 14.985,0 v -8.603 H 50 76.948 v 8.603 c 0.033,10.480003 15.042,10.606003 15.052,0 v -8.603 h 8 v -26.951 c -0.025,-7.246 -5.79,-11.071 -9.075,-11.491 z m -75.198,22.178 c -3.834,0.011 -6.938,-3.187 -6.922,-7.12 -0.016,-3.96 3.088,-7.161 6.922,-7.128 3.822,-0.033 6.926,3.168 6.921,7.128 0.005,3.933 -3.1,7.13 -6.921,7.12 z M 50,37.739138 H 49.933 17.541 l 6.182,-16.668 c 0.746,-2.366 1.904,-4.059 4.639,-4.1 H 49.933 50 71.64 c 2.693,0.041 3.854,1.733 4.636,4.1 l 6.183,16.668 H 50 z m 34.274,22.377 c -3.861,0.011 -6.967,-3.187 -6.988,-7.12 0.021,-3.96 3.127,-7.161 6.988,-7.128 3.795,-0.033 6.898,3.168 6.922,7.128 -0.024,3.933 -3.127,7.13 -6.922,7.12 z"
   id="path5"
   inkscape:connector-curvature="0" />
<path
   d="M 84.274,52.995138"
   id="path7"
   inkscape:connector-curvature="0" />
</svg>