<?xml version="1.0" encoding="UTF-8" standalone="no"?>
<svg
   xmlns:dc="http://purl.org/dc/elements/1.1/"
   xmlns:cc="http://creativecommons.org/ns#"
   xmlns:rdf="http://www.w3.org/1999/02/22-rdf-syntax-ns#"
   xmlns:svg="http://www.w3.org/2000/svg"
   xmlns="http://www.w3.org/2000/svg"
   xmlns:sodipodi="http://sodipodi.sourceforge.net/DTD/sodipodi-0.dtd"
   xmlns:inkscape="http://www.inkscape.org/namespaces/inkscape"
   version="1.1"
   id="Capa_1"
   x="0px"
   y="0px"
   width="100px"
   height="100px"
   viewBox="0 0 100 100"
   enable-background="new 0 0 100 100"
   xml:space="preserve"
   inkscape:version="0.48.4 r9939"
   sodipodi:docname="Idle.svg"
   inkscape:export-filename="C:\Users\Erik\Pictures\Idle.png"
   inkscape:export-xdpi="43"
   inkscape:export-ydpi="43"><metadata
   id="metadata23"><rdf:RDF><cc:Work
       rdf:about=""><dc:format>image/svg+xml</dc:format><dc:type
         rdf:resource="http://purl.org/dc/dcmitype/StillImage" /><dc:title></dc:title></cc:Work></rdf:RDF></metadata><defs
   id="defs21" /><sodipodi:namedview
   pagecolor="#ffffff"
   bordercolor="#666666"
   borderopacity="1"
   objecttolerance="10"
   gridtolerance="10"
   guidetolerance="10"
   inkscape:pageopacity="0"
   inkscape:pageshadow="2"
   inkscape:window-width="1600"
   inkscape:window-height="871"
   id="namedview19"
   showgrid="false"
   inkscape:zoom="2.36"
   inkscape:cx="50"
   inkscape:cy="50"
   inkscape:window-x="-9"
   inkscape:window-y="-9"
   inkscape:window-maximized="1"
   inkscape:current-layer="Capa_1" />



<path
   d="M 28.150385,67.792472 H 41.524033 L 40.862408,71.196624 28.613522,86.57239 h 9.606796 l -0.648392,3.31334 H 23.841 l 0.674858,-3.85562 11.801185,-14.986569 h -8.735656 l 0.568998,-3.251069 z"
   id="path1"
   inkscape:connector-curvature="0"
   style="fill:#000000" />
<path
   d="M 50.242046,53.675102 H 61.646257 L 61.083875,56.57849 50.639021,69.689145 h 8.193124 L 58.278585,72.5121 H 46.570027 L 47.145641,69.224707 57.204547,56.44357 H 49.75906 l 0.482986,-2.768468 z"
   id="path2"
   inkscape:connector-curvature="0"
   style="fill:#000000" />
<path
   d="m 43.081057,31.602602 h 10.28827 l -0.507246,2.615385 -9.423746,11.831503 h 7.392557 l -0.498424,2.54533 H 39.768521 l 0.518273,-2.965659 9.077496,-11.527932 h -6.719905 l 0.436672,-2.498627 z"
   id="path3"
   inkscape:connector-curvature="0"
   style="fill:#000000" />
<path
   d="m 58.876253,15.866184 h 8.17107 l -0.403592,2.080892 -7.485185,9.395147 h 5.87082 l -0.396975,2.02381 h -8.389406 l 0.412413,-2.358517 7.209508,-9.156442 h -5.337109 l 0.348456,-1.98489 z"
   id="path4"
   inkscape:connector-curvature="0"
   style="fill:#000000" />
<path
   d="m 73.80472,7.841 h 6.629483 l -0.326401,1.686508 -6.073718,7.623017 h 4.761495 l -0.321991,1.642399 h -6.805917 l 0.335224,-1.91224 5.848765,-7.42842 H 73.520221 L 73.80472,7.841 z"
   id="path5"
   inkscape:connector-curvature="0"
   style="fill:#000000" />
</svg>