<?xml version="1.0" encoding="UTF-8" standalone="no"?>
<!-- Generator: Adobe Illustrator 14.0.0, SVG Export Plug-In . SVG Version: 6.00 Build 43363)  -->

<svg
   xmlns:dc="http://purl.org/dc/elements/1.1/"
   xmlns:cc="http://creativecommons.org/ns#"
   xmlns:rdf="http://www.w3.org/1999/02/22-rdf-syntax-ns#"
   xmlns:svg="http://www.w3.org/2000/svg"
   xmlns="http://www.w3.org/2000/svg"
   xmlns:sodipodi="http://sodipodi.sourceforge.net/DTD/sodipodi-0.dtd"
   xmlns:inkscape="http://www.inkscape.org/namespaces/inkscape"
   version="1.0"
   id="Layer_1"
   x="0px"
   y="0px"
   width="100.001"
   height="100"
   viewBox="0 0 100.001 100"
   enable-background="new 0 0 100.001 64.239"
   xml:space="preserve"
   inkscape:version="0.48.4 r9939"
   sodipodi:docname="Scooter.svg"
   inkscape:export-filename="C:\Users\Erik\Downloads\kk\Scooter.png"
   inkscape:export-xdpi="43"
   inkscape:export-ydpi="43"><metadata
   id="metadata27"><rdf:RDF><cc:Work
       rdf:about=""><dc:format>image/svg+xml</dc:format><dc:type
         rdf:resource="http://purl.org/dc/dcmitype/StillImage" /><dc:title></dc:title></cc:Work></rdf:RDF></metadata><defs
   id="defs25" /><sodipodi:namedview
   pagecolor="#ffffff"
   bordercolor="#666666"
   borderopacity="1"
   objecttolerance="10"
   gridtolerance="10"
   guidetolerance="10"
   inkscape:pageopacity="0"
   inkscape:pageshadow="2"
   inkscape:window-width="640"
   inkscape:window-height="480"
   id="namedview23"
   showgrid="false"
   inkscape:zoom="2.74"
   inkscape:cx="50.0005"
   inkscape:cy="50"
   inkscape:window-x="0"
   inkscape:window-y="0"
   inkscape:window-maximized="0"
   inkscape:current-layer="Layer_1" />
<g
   id="g3"
   transform="translate(0.36496351,18.972681)">
	<path
   d="m 86.634,37.406 c -7.38,0 -13.366,5.986 -13.366,13.379 0,7.368 5.986,13.342 13.366,13.342 7.393,0 13.367,-5.974 13.367,-13.342 0,-7.392 -5.974,-13.379 -13.367,-13.379 z"
   id="path5"
   inkscape:connector-curvature="0" />
	<path
   d="M 86.634,50.785"
   id="path7"
   inkscape:connector-curvature="0" />
</g>
<path
   d="m 10.334964,72.545681 c 1.319,5.986 6.671,10.665998 13.043,10.665998 6.459,0 11.848,-4.579998 13.093,-10.665998 h -26.136 z"
   id="path9"
   inkscape:connector-curvature="0" />
<path
   d="M 23.377964,69.857681"
   id="path11"
   inkscape:connector-curvature="0" />
<path
   d="M 86.998964,69.757681"
   id="path13"
   inkscape:connector-curvature="0" />
<path
   d="M 86.998964,69.757681"
   id="path15"
   inkscape:connector-curvature="0" />
<g
   id="g17"
   transform="translate(0.36496351,18.972681)">
	<path
   d="M 25.452,22.857"
   id="path19"
   inkscape:connector-curvature="0" />
</g>
<path
   d="m 85.941964,47.268681 -3.472,-11.648 c -0.112,-0.436 0.535,-0.648 0.535,-0.648 l 5.513,-1.63 -0.759,-7.767 -6.484,-0.547 c -1.842,0.225 -2.266,-1.518 -2.266,-1.518 l -0.759,-2.701 c -0.535,-2.054 -2.377,-1.83 -2.377,-1.83 h -12.843 c -1.842,1.406 0.323,2.49 0.323,2.49 h 7.878 c 0.76,-0.125 1.183,0.758 1.183,0.758 l 4.381,27.133 c -4.953,2.24 -9.371,6.422 -11.773,12.93 h -14.314 c -9.185,-6.919 -5.078,-16.851 -5.078,-16.851 h 3.56 v -7.219 H 2.4189635 v 7.219 h 7.144 c -9.94299999,9.509 -9.18499999,23.547 -9.18499999,23.547 H 69.762964 c 0.46,-9.147 7.977,-16.453 17.236,-16.453 4.045,0 7.729,1.456 10.679,3.784 h 2.687996 c -0.596996,-5.689 -7.055996,-9.173 -14.423996,-9.049 z"
   id="path21"
   inkscape:connector-curvature="0" />
</svg>