<?xml version="1.0" encoding="UTF-8" standalone="no"?>
<svg
   xmlns:dc="http://purl.org/dc/elements/1.1/"
   xmlns:cc="http://creativecommons.org/ns#"
   xmlns:rdf="http://www.w3.org/1999/02/22-rdf-syntax-ns#"
   xmlns:svg="http://www.w3.org/2000/svg"
   xmlns="http://www.w3.org/2000/svg"
   xmlns:sodipodi="http://sodipodi.sourceforge.net/DTD/sodipodi-0.dtd"
   xmlns:inkscape="http://www.inkscape.org/namespaces/inkscape"
   xml:space="preserve"
   width="100"
   height="100"
   style="fill-rule:evenodd"
   viewBox="0 0 160.947 160.49733"
   id="svg2"
   version="1.1"
   inkscape:version="0.48.4 r9939"
   sodipodi:docname="security camera.svg"
   inkscape:export-filename="E:\Downloads\security camera.png"
   inkscape:export-xdpi="57.599998"
   inkscape:export-ydpi="57.599998"><metadata
   id="metadata14"><rdf:RDF><cc:Work
       rdf:about=""><dc:format>image/svg+xml</dc:format><dc:type
         rdf:resource="http://purl.org/dc/dcmitype/StillImage" /></cc:Work></rdf:RDF></metadata><sodipodi:namedview
   pagecolor="#ffffff"
   bordercolor="#666666"
   borderopacity="1"
   objecttolerance="10"
   gridtolerance="10"
   guidetolerance="10"
   inkscape:pageopacity="0"
   inkscape:pageshadow="2"
   inkscape:window-width="1061"
   inkscape:window-height="892"
   id="namedview12"
   showgrid="false"
   inkscape:zoom="6.48"
   inkscape:cx="50"
   inkscape:cy="50"
   inkscape:window-x="0"
   inkscape:window-y="0"
   inkscape:window-maximized="0"
   inkscape:current-layer="svg2" />
 <defs
   id="defs4">
  <style
   type="text/css"
   id="style6">
   
    .fil0 {fill:black}
   
  </style>
 </defs>
 <g
   id="Layer_x0020_1"
   transform="translate(0.49675,20.118375)">
  <metadata
   id="CorelCorpID_0Corel-Layer" />
  <path
   class="fil0"
   d="m 77.8491,70.1581 0,35.7986 c 0,2.73203 -2.23521,4.96724 -4.96724,4.96724 l 0,0 c -2.73203,0 -4.96724,-2.23521 -4.96724,-4.96724 l 0,-12.871 -55.6783,2.86436 0,24.4229 -12.2363,0 0,-51.0046 12.2363,0 0,10.2172 55.6783,3.70002 0,-13.1276 c -3.80075,-1.76679 -6.42105,-5.49748 -6.42105,-9.81428 0,-0.170795 0.0048,-0.340444 0.01282,-0.509407 l -37.037,-17.6772 c -1.5921,-0.760105 -2.26841,-2.68624 -1.5067,-4.27605 l 17.2809,-36.064 c 0.761936,-1.58981 2.68441,-2.26475 4.27673,-1.50487 l 100.937,48.1757 0.0112,0.005 c 0.47278,0.210631 15.597,6.96228 15.4775,8.03559 -0.12134,1.09025 -5.69392,1.0298 -10.6612,1.87782 -4.9519,0.845273 -6.58818,2.52895 -6.61909,2.59672 l -1.87233,3.90744 c 0.32533,-0.214981 0.75255,-0.259855 1.12802,-0.08013 l 2.90717,1.39291 c 0.56779,0.271989 0.80956,0.958831 0.53757,1.52662 l -6.75852,14.1059 c -0.27199,0.568018 -0.95883,0.809786 -1.52662,0.537797 l -2.90717,-1.39291 c -0.37593,-0.180181 -0.609,-0.541918 -0.64449,-0.930899 l -4.31749,9.01022 c -0.76171,1.58958 -2.68463,2.2652 -4.27673,1.5051 l -45.781,-21.8505 c -0.702181,0.558402 -1.47556,1.03759 -2.30527,1.42336 z M 75.96212,48.0386 c 2.94449,0 5.33149,2.387 5.33149,5.33149 0,2.94449 -2.387,5.33149 -5.33149,5.33149 -2.94449,0 -5.33149,-2.387 -5.33149,-5.33149 0,-2.94449 2.387,-5.33149 5.33149,-5.33149 z m 0,-2.42203 c 4.28223,0 7.75352,3.4713 7.75352,7.75352 0,4.28223 -3.4713,7.75352 -7.75352,7.75352 -4.28223,0 -7.75352,-3.4713 -7.75352,-7.75352 0,-4.28223 3.4713,-7.75352 7.75352,-7.75352 z"
   id="path10"
   inkscape:connector-curvature="0"
   style="fill:#000000" />
 </g>
</svg>